<svg xmlns="http://www.w3.org/2000/svg" viewBox="0 0 484 335"><defs><clipPath id="clip-path"><path class="cls-1" d="M0 36.45h484v338.08H0z"/></clipPath><clipPath id="clip-path-2"><path class="cls-1" d="M13.59 26.32h506.95v308.63H13.59z"/></clipPath><clipPath id="clip-path-3"><path class="cls-1" d="M247.17 146.92h63.89v50.29h-63.89z"/></clipPath><clipPath id="clip-path-4"><path class="cls-1" d="M271.91 108.25h18.77v27.45h-18.77z"/></clipPath><clipPath id="clip-path-5"><path class="cls-1" d="M229.97 117.09h4.27v7.36h-4.27z"/></clipPath><clipPath id="clip-path-6"><path class="cls-1" d="M315.85 116.81h4.08v8.26h-4.08z"/></clipPath><clipPath id="clip-path-7"><path class="cls-1" transform="rotate(-11.4 273.88 155.387)" d="M221.69 116.64h104.35v77.53H221.69z"/></clipPath><clipPath id="clip-path-8"><rect class="cls-1" x="33.81" y="218.22" width="136.75" height="32.15" rx="14.35" transform="rotate(-44.71 102.195 234.318)"/></clipPath><clipPath id="clip-path-9"><circle class="cls-1" cx="226.07" cy="126.2" r="29.71"/></clipPath><style>.cls-1{fill:none}.cls-3{fill:#f5f6f9}.cls-4{fill:#ebedf3}.cls-6{fill:#8e405f;opacity:.18}.cls-13,.cls-21,.cls-24,.cls-6{mix-blend-mode:multiply}.cls-7{fill:#2ed1ff}.cls-8,.cls-9{fill:#054752}.cls-11,.cls-9{opacity:.45}.cls-10,.cls-11{fill:#fff}.cls-12{fill:#004553}.cls-13{opacity:.49}.cls-15{fill:#044752}.cls-21{opacity:.2}.cls-22{fill:#a33e60}.cls-23{fill:#cd9f6f}.cls-26{fill:#eacb92}.cls-33{fill:#9aed66}.cls-41{fill:#5f003c}</style></defs><g style="isolation:isolate"><g id="Calque_1" data-name="Calque 1"><path class="cls-3" d="M47.89 47h40.16v163.29H47.89zM188.77 92.01h32.19v118.27h-32.19z"/><path class="cls-3" d="M116.57 107.17H84.6l.6 103.12h31.37V107.17z"/><path class="cls-3" d="M285.94 162.75H23.18v47.54h263.15l-.39-47.54z"/><path class="cls-3" d="m252.8 149.71-49.95-13.6v74.18h49.95v-60.58z"/><path class="cls-3" d="m205.35 72.26-37.07-13.09v151.12h37.07V72.26zM111.79 17.15h49.01v193.14h-49.01zM37.92 90.66 3.38 108.65v101.64h34.54V90.66zM297.5 206.81l-.14-74.27 52.95-62.37 85.28 58.69 2.22 87.91-140.31-9.96z"/><path class="cls-4" d="m347.17 100.88 18.77 1.56.96 22.34-19.25.98-.48-24.88zM379.92 128.93l22.54-1.52 1.08 27.09-21.02.44-2.6-26.01zM321.95 204.16l-2.68-58.98 29.66-.44 1.65 59.4-28.63.02z"/><g style="clip-path:url(#clip-path)"><path class="cls-6" d="m362.07 212.65 178.27-.73-7.81-3.63-158.83-.57-11.63 4.93z"/><path class="cls-7" d="M447.78 151.65c-18.78 0-43.11 7.64-64.95 19.9l103.11.14s-19.38-20.04-38.16-20.04Z"/><path class="cls-7" d="M523.82 178.28c-13.54-3.17-37.88-6.59-37.88-6.59l-95.67-.05-7.44-.09s-11.83 7-15.76 13-4.3 8.23-4.3 8.23l.19 6.54h173.09a3.71 3.71 0 0 0 3.65-4.32l-.45-2.52s4.35-9.57-15.43-14.2Z"/><rect class="cls-8" x="438.43" y="176.97" width="7.67" height="1.87" rx=".74"/><path class="cls-9" d="M490.31 199.1h-79.83l-1.97-7.74h83.78l-1.98 7.74z"/><rect class="cls-8" x="411.64" y="200.41" width="78.67" height="2.3" rx=".91"/><rect class="cls-8" x="361.43" y="200.41" width="23.21" height="2.3" rx=".91"/><path class="cls-10" d="M368.93 181.32H380a9.61 9.61 0 0 1-7.57 5.27c-7.2 1-6.91.16-6.91.16Z"/><rect class="cls-11" x="453.49" y="181.09" width="36.19" height="6.45" rx="2.55"/><rect class="cls-11" x="409.13" y="181.09" width="36.19" height="6.45" rx="2.55"/><path class="cls-9" d="M476.76 167.48V178a3.59 3.59 0 0 0 3.58-3.57v-3.33a3.59 3.59 0 0 0-3.58-3.62Z"/><rect class="cls-8" x="369.44" y="177.71" width="12.18" height="3.09" rx="1.22"/><path class="cls-10" d="M384.3 199.62a13.59 13.59 0 0 1 27.17 0"/><path class="cls-12" d="M409.35 199.32a11.21 11.21 0 0 1-11.21 11.21 11.21 11.21 0 1 1 11.21-11.21Z"/><g class="cls-13"><path class="cls-12" d="M407.54 205.43a11.21 11.21 0 1 1-18-13.35l5.7 4.23 6.57 4.89Z"/></g><path class="cls-10" d="M402.31 199.32a4.17 4.17 0 1 1-4.17-4.16 4.17 4.17 0 0 1 4.17 4.16Z"/><path class="cls-12" d="M409.35 199.32a11.21 11.21 0 0 1-11.21 11.21 11.21 11.21 0 1 1 11.21-11.21Z"/><g class="cls-13"><path class="cls-12" d="M407.54 205.43a11.21 11.21 0 1 1-18-13.35l5.7 4.23 6.57 4.89Z"/></g><path class="cls-10" d="M402.31 199.32a4.17 4.17 0 1 1-4.17-4.16 4.17 4.17 0 0 1 4.17 4.16ZM478 171.34l-73.4-.34c-1.48 0-5.24-.32-5.24-2.68v-.65c0-4.86 33.08-13.65 48.85-13.65s30.52 14.3 30.52 14.3-.73 2.94-.73 3.02Z"/><path class="cls-7" d="m433.74 155.63 3.48 15.45-2.03-.05-3.29-15.08 1.84-.32z"/><g id="BUS"><path class="cls-6" d="m98.69 211.25-335.62-1.05 15.71-5.21 296.51-.82 23.4 7.08z"/><path class="cls-8" d="M63.1 155.67s-.83-34.15-.83-34.64 25.12-.29 28.65-.24v-1.64a6.44 6.44 0 0 0-1-3.36C88.43 113.5 85.1 110 78.3 110c-9.31 0-261 1.22-309.13 1.42a6.6 6.6 0 0 0-6.57 6.6v71.14a6.6 6.6 0 0 0 5.68 6.54l28.15 4a5.62 5.62 0 0 0 .92.07H82.16s7.24 0 8.69-4.83c.38-1.26.56-7.22.62-15.31-17.64-1.14-28.37-23.96-28.37-23.96Zm-27.9 1.38h-262.94v-35.49H35.2Z"/><path class="cls-8" d="M-26.48 107.28H8.68v4.18h-35.16zM63.55 199.38H32.77l-.45-78.35H63.1l.45 78.35z"/><path d="M-7.46 199.92v-12.71a11.8 11.8 0 0 1 11.81-11.8H15.1a11.8 11.8 0 0 1 11.8 11.8v12.71" style="fill:#005156;opacity:.45;mix-blend-mode:multiply"/><path class="cls-15" d="M70.44 189.12h5.8v2.41h-5.8zM85.74 184.29s.09 4.57.57 5.26c.91 1.3 3 1.78 5.3 1.67v-6.93Z"/><path class="cls-10" d="M-230.62 121.56H32.32v35.49h-262.94zM63.55 121.19h27.82v58.57s-14.78.82-27.82-23.94Z"/><path class="cls-8" d="M75.39 124.36v20.52a7 7 0 0 0 7-7v-6.52a7 7 0 0 0-7-7Z"/><circle class="cls-8" cx="9.72" cy="194.87" r="14.85"/><circle cx="9.72" cy="194.87" r="10.88" style="fill:#044752;opacity:.45"/><circle cx="9.72" cy="194.87" r="10.89" style="opacity:.45;fill:#054752;mix-blend-mode:multiply"/><circle cx="9.72" cy="194.87" r="8.75" style="opacity:.86;fill:#fff"/><circle class="cls-8" cx="9.72" cy="194.87" r="4.19"/></g></g><g style="clip-path:url(#clip-path-2)"><path class="cls-7" d="m207.94 287.49 7.27-92.74 47.88-13.33 20.32-2.48s51.71 8.9 64.27 23.06c7.3 8.23 14.21 37.61 14.21 37.61l-11.52 25.45-3.13 190-8.8-.27-126.26-6.08Z"/><g class="cls-21"><path class="cls-22" d="m350.07 297.89-1.52 83.44c-26.1-46.38-4.85-100.85-4.85-100.85l6.37 17.41"/></g><g class="cls-21"><path class="cls-22" d="m207.38 299.71 1.51 83.44c28.71-40.31 4.85-100.85 4.85-100.85l-6.36 17.41"/></g><path class="cls-7" d="M342.3 198.62s-21.82 36-21.72 36.47c.2.84 7.51 34.11 16.36 49.09 0 .05 9.28 26.57 9.7 27.28l18.26 69.59 15.21 72.22 33.26 3.8c4.56-79.71-6.68-143.28-23.89-185.78-10.06-24.86-24.96-67.29-47.18-72.67Z"/><path class="cls-23" d="m307.9 147.01-49.36.51-.32 47.29 53.39-5.33-3.71-42.47z"/><path class="cls-23" d="M311.61 189.48s-3.55 21.11-35.67 16.83-16.38-24.25-16.38-24.25l.5-3.25Z"/><g class="cls-24"><path class="cls-26" d="M247.17 153.9c7 14.41 18.6 28.4 63.09 33.65l-3.77-40.63Z" style="clip-path:url(#clip-path-3)"/></g><path class="cls-23" d="M318.21 114.34c0 30-14.6 65.17-41.54 65.17s-44-36-44-66 15.62-54.13 42.56-54.13 43 24.92 43 55"/><path d="M291.76 115.38s1-2.28 4.7-3.22a7.28 7.28 0 0 1 6 1.4" style="stroke-width:5.61px;stroke:#000;stroke-miterlimit:10;fill:none"/><path d="M251 114.53a3.15 3.15 0 1 1 0 4.45 3.14 3.14 0 0 1 0-4.45"/><g class="cls-24"><path class="cls-26" d="M290.66 122.66c.59 19.93-18.75 11.08-18.75 11.08l8.27-3.55c-.14-.68-1-22.12-1.13-21.94 0 0 11.21.67 11.61 14.41" style="clip-path:url(#clip-path-4)"/></g><path class="cls-23" d="M233.09 130.94a6.12 6.12 0 0 1-6.1-6.1v-8.34a6.1 6.1 0 1 1 12.2 0v8.34a6.12 6.12 0 0 1-6.1 6.1M315.87 130.94a6.12 6.12 0 0 1-6.1-6.1v-8.34a6.1 6.1 0 0 1 12.2 0v8.34a6.12 6.12 0 0 1-6.1 6.1"/><path d="M250.3 50.73c0 4.17 5.36 40.26 6.58 41.23 1 .8 50.41-5.64 50.41-5.64 7.6 5.48 10.92 20.57 10.92 20.57s13.07-50.29-26-60.33c-20.92-5.38-41.93 4.17-41.93 4.17"/><path d="M258.22 47.54S230.68 57.47 229.45 74s3.69 38.63 3.69 38.63 2.72 1.32 2.72 1 7.7-20.63 7.7-20.63 13.32-.56 13.32-1.08 1.34-44.42 1.34-44.42"/><g class="cls-24"><path class="cls-26" d="M234.24 117.52a2.45 2.45 0 0 0-2.88.08 3.58 3.58 0 0 0-1 1.6 4.51 4.51 0 0 0 .22 4 2.62 2.62 0 0 0 3.62.8" style="clip-path:url(#clip-path-5)"/></g><g class="cls-24"><path class="cls-26" d="M315.85 116.81c1.41.42 3 1 3.67 2.24a5.47 5.47 0 0 1 .29 3.31 4.27 4.27 0 0 1-.65 2 1.53 1.53 0 0 1-1.88.55" style="clip-path:url(#clip-path-6)"/></g><path d="M250.47 93s56.77-6.61 63.45-15.11S338.09 24.13 296.15 31 232 70.44 232 70.44Z"/><g style="opacity:.4"><path d="M299.11 169.7c-9.87 9.81-22 11.34-29.59 9-.13 0-4.09-1.39-4.22-1.45a22.52 22.52 0 0 1-4-2c-2.84-1.83-1.31-.88-3.42-2.25a36.24 36.24 0 0 1-4.68-4c-12.12-10.88-17.48-32.55-17.48-32.55l80.13-.75a1.58 1.58 0 0 1 0 1.09c-6.95 23.13-9.7 22.94-12.23 27.77" style="clip-path:url(#clip-path-7)"/></g><path class="cls-10" d="m260.92 142.6 33.4-1.4s-8.35 8.35-18.09 8.35a20.77 20.77 0 0 1-15.31-7"/><path class="cls-7" d="m151.25 240.57 36.35 45.35s17.84 23.22 5.59 34.9-26 11.81-40.43-2.74-54.88-74.54-54.88-74.54L135 217.72Z"/><path class="cls-7" d="M234 195.36c-22.06-9.36-40.61 11.52-49.09 27.27S151 292.94 151 292.94l46.67 24.25 21.82-39.4s17-25.46 21.82-41.82-.95-37.91-7.31-40.61Z"/><rect class="cls-8" x="61.46" y="202.67" width="124.96" height="20.17" rx="9.01" transform="rotate(-44.71 123.965 212.767)"/><rect class="cls-33" x="33.81" y="218.22" width="136.75" height="32.15" rx="14.35" transform="rotate(-44.71 102.195 234.318)"/><circle class="cls-23" cx="212.33" cy="124.43" r="75.09"/><path d="M205.4 105.62a29.42 29.42 0 1 1 0 41.6 29.42 29.42 0 0 1 0-41.6"/><path d="M191.58 77.82s8.35-9.73 27.91-8.87c17.82.79 27.57 15.84 27.57 15.84" style="stroke-linecap:round;stroke-width:20px;stroke:#000;stroke-miterlimit:10;fill:none"/><circle cx="212.33" cy="124.43" r="72.14" style="opacity:.1;fill:#fff"/><path class="cls-10" d="M212.33 73.3a51.14 51.14 0 1 1-51.13 51.13 51.19 51.19 0 0 1 51.13-51.13m0-21a72.14 72.14 0 1 0 72.14 72.13 72.13 72.13 0 0 0-72.14-72.13Z" style="opacity:.7"/><path d="M158.63 116.26c-.16-10.24 7.07-22.4 16.14-27.15s16.58-.31 16.74 9.94-7 22.41-16.14 27.16-16.57.3-16.74-9.95" style="opacity:.6;fill:#fff"/><path class="cls-8" d="M212.33 70.72a53.72 53.72 0 1 1-53.71 53.71 53.78 53.78 0 0 1 53.71-53.71m0-27a80.72 80.72 0 1 0 80.72 80.71 80.72 80.72 0 0 0-80.72-80.71Z"/><g style="clip-path:url(#clip-path-8)"><g style="opacity:.2"><path class="cls-22" d="M111.79 196.07c-3.77 3.27-2.53 7.88-.1 11.52S136.44 235 138 236.48s7 5.15 9.7 2.12 3.33-4.55 1.21-7.88S125.73 200 122.7 197s-7.88-3.55-10.91-.93ZM98.19 204.91c-3.88 3.36-2.6 8.1-.11 11.84s25.45 28.14 27 29.7 7.17 5.29 10 2.18 3.43-4.67 1.25-8.1-23.81-31.53-26.93-34.69-8.1-3.63-11.21-.93Z"/><path class="cls-22" d="M90.08 215.92c-3.36 3.1-2.09 7.28.23 10.54s23.41 24.33 24.84 25.68 6.52 4.51 8.93 1.66 2.92-4.25.88-7.24-22-27.43-24.88-30.11-7.31-3.01-10-.53Z"/><path class="cls-22" d="M81.61 227c-2.61 3-1.1 6.52 1.24 9.12s22.71 18.84 24.08 19.87 6.1 3.28 7.92.57 2.12-4 .06-6.38-21.82-21.66-24.56-23.71-6.64-1.95-8.74.53Z"/></g></g><path class="cls-23" d="M108.33 196.52c-3.77 3.27-2.52 7.88-.1 11.51s24.75 27.38 26.26 28.9 7 5.15 9.7 2.12 3.34-4.55 1.21-7.88-23.13-30.71-26.16-33.74-7.88-3.54-10.91-.91ZM94.73 205.35c-3.88 3.36-2.6 8.1-.1 11.84s25.44 28.15 27 29.7 7.16 5.3 10 2.18 3.42-4.67 1.24-8.1-23.81-31.57-26.87-34.68-8.15-3.64-11.27-.94Z"/><path class="cls-23" d="M86.62 216.37c-3.36 3.1-2.09 7.28.23 10.54s23.41 24.33 24.84 25.67 6.52 4.52 8.93 1.67 2.92-4.25.88-7.24-22-27.43-24.88-30.12-7.3-3.01-10-.52Z"/><path class="cls-23" d="M78.16 227.39c-2.62 3-1.1 6.53 1.23 9.13s22.71 18.84 24.08 19.86 6.11 3.28 7.92.57 2.12-4 .06-6.37-21.81-21.66-24.56-23.71-6.64-1.87-8.73.52Z"/><ellipse class="cls-23" cx="149.34" cy="217.53" rx="8.79" ry="6.67" transform="rotate(-53.26 149.32 217.517)"/></g><g style="clip-path:url(#clip-path-9)"><circle class="cls-8" cx="226.07" cy="126.2" r="29.71"/><path class="cls-33" d="M204 103.59s2.22 2.15 4.68 1.92 2.38-.08 2.92 2.15-1.16 5.53.46 6.68a4.9 4.9 0 0 1 1.53 5.14c-.54 1.38-.48 2.39-.24 5s.24 2.56-1.83 4.1-4.07 3.15-3.92 4.91.77 4.76-.38 6-3.07 4.61-4.45 4.84-6.45-2.08-6.45-2.08-2.15-26.64-2-26.87 9.68-11.79 9.68-11.79ZM217.55 144.51s-6.83-3.38-4.92-5.3 5.69-1.61 6.76-3.46 1.31-4.29 3.38-3.76 5.76 1.23 6 2.84 1.07 4.46-.62 5.84-4.76 2.15-5.68 4-4.92-.16-4.92-.16ZM248.33 147.58s-6.45-2.23-6.37-4.07-.15-2.46 1.77-4 1.84-2.54 2-4.15.46-3 2.3-3.91 3.69-.31 4.46-2.23 1.38-2 2.15-2a6.11 6.11 0 0 1 2.22 1l.16 7.06-1.69 8.06ZM247.87 105.35s-4.07 1-4.14 2.46 2.07 1.23 2.38 4-1.08 3.46.3 4.69.62 3.07 2.61 3.14 2.08.31 3.15-.76 2.38-2.61 2.38-2.61l-2.46-6.07Z"/></g><path class="cls-41" d="M205.17 94.34c1.7 3.41-.84 13.83-.84 13.83s-9.83-4.28-11.53-7.69a6.91 6.91 0 0 1 12.37-6.14Z"/><path class="cls-10" d="M201.16 96.09A2.37 2.37 0 1 1 198 95a2.37 2.37 0 0 1 3.16 1.09Z"/><path class="cls-41" d="M224.36 89.77c-.72 2.55-6.9 6.72-6.9 6.72s-3.05-6.79-2.33-9.34a4.8 4.8 0 0 1 9.23 2.62Z"/><path class="cls-10" d="M221.48 88.8a1.64 1.64 0 1 1-1.13-2 1.65 1.65 0 0 1 1.13 2Z"/></g></g></svg>
